<svg width="100%" height="100%" viewBox="0 0 1792 1792" fill="none" xmlns="http://www.w3.org/2000/svg">
<g filter="url(#filter0_d_737_32)">
<rect x="146" y="146" width="1500" height="1500" rx="585" fill="white"/>
</g>
<g filter="url(#filter1_dd_737_32)">
<path fill-rule="evenodd" clip-rule="evenodd" d="M1085.51 421.862C1174.6 402.025 1374.56 407.428 1461.71 587.738C1483.67 650.206 1477.67 790.841 1278.04 853.646C1408.51 889.101 1616.75 1027.12 1405.98 1295.56C1360.8 1346.63 1211.67 1426.74 976.576 1338.61C953.655 1327.98 921.878 1307.67 896 1279.29C870.122 1307.67 838.344 1327.98 815.423 1338.61C580.329 1426.74 431.2 1346.63 386.022 1295.56C175.248 1027.12 383.489 889.101 513.956 853.646C314.329 790.841 308.333 650.206 330.289 587.738C417.436 407.428 617.398 402.025 706.486 421.863C767.501 434.41 859.449 473.838 896 582.827C932.551 473.838 1024.5 434.41 1085.51 421.862ZM896 699.188C886.928 699.28 879.183 682.169 876.223 652.316C865.077 539.875 771.09 497.414 725.49 490.239C564.369 469.979 524.934 572.966 525.356 626.991C516.236 808.315 667.645 846.893 744.49 843.516C764.756 839.464 770.668 855.334 771.09 863.776C772.103 875.932 757.156 884.88 749.556 887.834C696.863 874.666 638.09 897.542 615.289 910.626C435.929 1018 497.489 1173.16 550.689 1237.31C722.541 1363.55 826.425 1246.39 850.844 1177.12C850.47 1162.48 852.489 1147.07 857.51 1130.95C860.381 1119.06 872.979 1096.09 896 1101.3C919.021 1096.09 931.618 1119.06 934.49 1130.95C939.511 1147.07 941.53 1162.48 941.156 1177.12C965.575 1246.39 1069.46 1363.55 1241.31 1237.31C1294.51 1173.16 1356.07 1018 1176.71 910.626C1153.91 897.542 1095.14 874.666 1042.44 887.834C1034.84 884.88 1019.9 875.932 1020.91 863.776C1021.33 855.334 1027.24 839.464 1047.51 843.516C1124.35 846.893 1275.76 808.315 1266.64 626.991C1267.07 572.966 1227.63 469.979 1066.51 490.239C1020.91 497.414 926.923 539.875 915.776 652.316C912.817 682.169 905.072 699.28 896 699.188Z" fill="url(#paint0_linear_737_32)"/>
<path d="M1461.71 587.738L1462.18 587.573L1462.17 587.546L1462.16 587.521L1461.71 587.738ZM1085.51 421.862L1085.61 422.352L1085.62 422.351L1085.51 421.862ZM1278.04 853.646L1277.89 853.169L1276.27 853.681L1277.91 854.129L1278.04 853.646ZM1405.98 1295.56L1406.35 1295.89L1406.36 1295.88L1406.37 1295.87L1405.98 1295.56ZM976.576 1338.61L976.366 1339.06L976.383 1339.07L976.401 1339.08L976.576 1338.61ZM896 1279.29L896.369 1278.96L896 1278.55L895.63 1278.96L896 1279.29ZM815.423 1338.61L815.599 1339.08L815.616 1339.07L815.633 1339.06L815.423 1338.61ZM386.022 1295.56L385.629 1295.87L385.638 1295.88L385.648 1295.89L386.022 1295.56ZM513.956 853.646L514.087 854.129L515.733 853.681L514.106 853.169L513.956 853.646ZM330.289 587.738L329.839 587.521L329.826 587.546L329.817 587.573L330.289 587.738ZM706.486 421.863L706.378 422.351L706.386 422.352L706.486 421.863ZM896 582.827L895.526 582.986L896 584.4L896.474 582.986L896 582.827ZM896 699.188L896.005 698.688L895.995 698.688L896 699.188ZM876.223 652.316L875.726 652.365L875.726 652.365L876.223 652.316ZM725.49 490.239L725.567 489.745L725.56 489.744L725.552 489.743L725.49 490.239ZM525.356 626.991L525.855 627.017L525.856 627.002L525.856 626.988L525.356 626.991ZM744.49 843.516L744.512 844.016L744.55 844.014L744.588 844.007L744.49 843.516ZM771.09 863.776L770.59 863.801L770.591 863.809L770.592 863.818L771.09 863.776ZM749.556 887.834L749.435 888.319L749.589 888.358L749.738 888.3L749.556 887.834ZM615.289 910.626L615.041 910.193L615.033 910.197L615.289 910.626ZM550.689 1237.31L550.304 1237.63L550.344 1237.68L550.393 1237.72L550.689 1237.31ZM850.844 1177.12L851.315 1177.28L851.346 1177.19L851.344 1177.1L850.844 1177.12ZM857.51 1130.95L857.987 1131.1L857.992 1131.08L857.996 1131.07L857.51 1130.95ZM896 1101.3L895.889 1101.78L896 1101.81L896.11 1101.78L896 1101.3ZM934.49 1130.95L934.004 1131.07L934.008 1131.08L934.013 1131.1L934.49 1130.95ZM941.156 1177.12L940.656 1177.1L940.654 1177.19L940.684 1177.28L941.156 1177.12ZM1241.31 1237.31L1241.61 1237.72L1241.66 1237.68L1241.7 1237.63L1241.31 1237.31ZM1176.71 910.626L1176.97 910.197L1176.96 910.193L1176.71 910.626ZM1042.44 887.834L1042.26 888.3L1042.41 888.358L1042.56 888.319L1042.44 887.834ZM1020.91 863.776L1021.41 863.818L1021.41 863.809L1021.41 863.801L1020.91 863.776ZM1047.51 843.516L1047.41 844.007L1047.45 844.014L1047.49 844.016L1047.51 843.516ZM1266.64 626.991L1266.14 626.988L1266.14 627.002L1266.14 627.017L1266.64 626.991ZM1066.51 490.239L1066.45 489.743L1066.44 489.744L1066.43 489.745L1066.51 490.239ZM915.776 652.316L916.274 652.365L916.274 652.365L915.776 652.316ZM1462.16 587.521C1418.52 497.216 1346.61 450.707 1274.48 429.266C1202.37 407.828 1130.02 411.44 1085.4 421.374L1085.62 422.351C1130.1 412.447 1202.27 408.842 1274.2 430.224C1346.11 451.602 1417.76 497.95 1461.26 587.956L1462.16 587.521ZM1278.19 854.123C1378.11 822.687 1429.65 771.746 1453.42 720.777C1477.19 669.826 1473.2 618.913 1462.18 587.573L1461.24 587.904C1472.18 619.031 1476.16 669.67 1452.52 720.354C1428.88 771.022 1377.6 821.8 1277.89 853.169L1278.19 854.123ZM1406.37 1295.87C1459.1 1228.71 1485.65 1169.68 1493.75 1118.33C1501.85 1066.97 1491.47 1023.32 1470.41 986.982C1428.29 914.329 1343.47 870.907 1278.17 853.164L1277.91 854.129C1343.09 871.839 1427.62 915.154 1469.54 987.484C1490.5 1023.63 1500.82 1067.05 1492.76 1118.17C1484.7 1169.3 1458.24 1228.19 1405.58 1295.25L1406.37 1295.87ZM976.401 1339.08C1211.66 1427.27 1361.02 1347.14 1406.35 1295.89L1405.6 1295.23C1360.58 1346.12 1211.68 1426.21 976.752 1338.14L976.401 1339.08ZM895.63 1279.63C921.56 1308.06 953.395 1328.41 976.366 1339.06L976.787 1338.16C953.915 1327.55 922.195 1307.27 896.369 1278.96L895.63 1279.63ZM895.63 1278.96C869.804 1307.27 838.084 1327.55 815.213 1338.16L815.633 1339.06C838.605 1328.41 870.439 1308.06 896.369 1279.63L895.63 1278.96ZM815.248 1338.14C580.321 1426.21 431.419 1346.12 386.397 1295.23L385.648 1295.89C430.981 1347.14 580.337 1427.27 815.599 1339.08L815.248 1338.14ZM386.415 1295.25C333.757 1228.19 307.301 1169.3 299.239 1118.17C291.178 1067.05 301.501 1023.63 322.456 987.484C364.384 915.154 448.914 871.839 514.087 854.129L513.825 853.164C448.53 870.907 363.707 914.329 321.591 986.982C300.525 1023.32 290.153 1066.97 298.251 1118.33C306.347 1169.68 332.9 1228.71 385.629 1295.87L386.415 1295.25ZM514.106 853.169C414.399 821.8 363.119 771.022 339.482 720.354C315.836 669.67 319.82 619.031 330.76 587.904L329.817 587.573C318.802 618.913 314.806 669.826 338.576 720.777C362.354 771.746 413.885 822.687 513.806 854.123L514.106 853.169ZM330.739 587.956C374.24 497.95 445.89 451.602 517.802 430.224C589.729 408.842 661.904 412.447 706.378 422.351L706.595 421.374C661.981 411.44 589.631 407.828 517.517 429.266C445.389 450.707 373.484 497.216 329.839 587.521L330.739 587.956ZM706.386 422.352C767.313 434.882 859.055 474.236 895.526 582.986L896.474 582.668C859.843 473.439 767.689 433.938 706.587 421.373L706.386 422.352ZM1085.41 421.373C1024.31 433.938 932.157 473.439 895.526 582.668L896.474 582.986C932.944 474.236 1024.69 434.882 1085.61 422.352L1085.41 421.373ZM895.995 698.688C893.899 698.709 891.836 697.741 889.853 695.748C887.865 693.752 885.985 690.75 884.279 686.784C880.867 678.852 878.198 667.168 876.721 652.267L875.726 652.365C877.208 667.317 879.891 679.115 883.36 687.179C885.094 691.21 887.036 694.335 889.144 696.454C891.257 698.576 893.564 699.713 896.005 699.688L895.995 698.688ZM876.721 652.267C865.543 539.508 771.287 496.939 725.567 489.745L725.412 490.733C770.893 497.889 864.611 540.242 875.726 652.365L876.721 652.267ZM725.552 489.743C644.876 479.598 594.57 500.304 564.491 530.405C534.43 560.486 524.644 599.879 524.856 626.995L525.856 626.988C525.646 600.078 535.366 560.965 565.198 531.112C595.011 501.277 644.984 480.62 725.427 490.735L725.552 489.743ZM524.857 626.966C520.288 717.796 555.938 772.939 602.403 804.928C648.834 836.894 706.013 845.708 744.512 844.016L744.468 843.017C706.122 844.702 649.174 835.915 602.97 804.105C556.799 772.318 521.304 717.51 525.855 627.017L524.857 626.966ZM744.588 844.007C754.565 842.012 760.925 844.923 764.86 849.296C768.825 853.702 770.383 859.658 770.59 863.801L771.589 863.751C771.374 859.453 769.766 853.252 765.603 848.627C761.41 843.967 754.682 840.969 744.392 843.026L744.588 844.007ZM770.592 863.818C771.079 869.667 767.731 874.802 763.218 878.885C758.713 882.961 753.133 885.908 749.375 887.368L749.738 888.3C753.58 886.807 759.273 883.802 763.889 879.626C768.496 875.458 772.114 870.041 771.588 863.734L770.592 863.818ZM749.678 887.349C723.227 880.739 695.274 883.179 671.098 888.899C646.921 894.619 626.482 903.627 615.041 910.193L615.538 911.06C626.897 904.542 647.245 895.569 671.328 889.872C695.412 884.174 723.193 881.761 749.435 888.319L749.678 887.349ZM615.033 910.197C525.221 963.964 495.66 1029.75 495.279 1090.17C494.898 1150.55 523.653 1205.49 550.304 1237.63L551.074 1236.99C524.525 1204.98 495.9 1150.26 496.279 1090.18C496.658 1030.15 525.998 964.665 615.546 911.055L615.033 910.197ZM550.393 1237.72C636.428 1300.91 705.55 1303.24 756.255 1280.99C806.915 1258.75 839.071 1212.02 851.315 1177.28L850.372 1176.95C838.197 1211.49 806.202 1257.97 755.853 1280.07C705.548 1302.15 636.802 1299.95 550.985 1236.91L550.393 1237.72ZM857.032 1130.8C851.995 1146.97 849.969 1162.44 850.344 1177.13L851.344 1177.1C850.971 1162.53 852.982 1147.17 857.987 1131.1L857.032 1130.8ZM896.11 1100.81C884.39 1098.16 875.316 1102.69 868.84 1109.36C862.38 1116.02 858.476 1124.82 857.024 1130.83L857.996 1131.07C859.415 1125.19 863.245 1116.56 869.557 1110.06C875.854 1103.57 884.589 1099.23 895.889 1101.78L896.11 1100.81ZM896.11 1101.78C907.41 1099.23 916.146 1103.57 922.442 1110.06C928.754 1116.56 932.585 1125.19 934.004 1131.07L934.976 1130.83C933.523 1124.82 929.619 1116.02 923.16 1109.36C916.684 1102.69 907.61 1098.16 895.889 1100.81L896.11 1101.78ZM934.013 1131.1C939.018 1147.17 941.028 1162.53 940.656 1177.1L941.656 1177.13C942.031 1162.44 940.004 1146.97 934.967 1130.8L934.013 1131.1ZM1241.01 1236.91C1155.2 1299.95 1086.45 1302.15 1036.15 1280.07C985.798 1257.97 953.803 1211.49 941.627 1176.95L940.684 1177.28C952.928 1212.02 985.085 1258.75 1035.74 1280.99C1086.45 1303.24 1155.57 1300.91 1241.61 1237.72L1241.01 1236.91ZM1176.45 911.055C1266 964.665 1295.34 1030.15 1295.72 1090.18C1296.1 1150.26 1267.47 1204.98 1240.93 1236.99L1241.7 1237.63C1268.35 1205.49 1297.1 1150.55 1296.72 1090.17C1296.34 1029.75 1266.78 963.964 1176.97 910.197L1176.45 911.055ZM1042.56 888.319C1068.81 881.761 1096.59 884.174 1120.67 889.872C1144.75 895.569 1165.1 904.542 1176.46 911.06L1176.96 910.193C1165.52 903.627 1145.08 894.619 1120.9 888.899C1096.73 883.179 1068.77 880.739 1042.32 887.349L1042.56 888.319ZM1020.41 863.734C1019.89 870.041 1023.5 875.458 1028.11 879.626C1032.73 883.802 1038.42 886.806 1042.26 888.3L1042.62 887.368C1038.87 885.908 1033.29 882.961 1028.78 878.885C1024.27 874.802 1020.92 869.667 1021.41 863.818L1020.41 863.734ZM1047.61 843.026C1037.32 840.969 1030.59 843.967 1026.4 848.627C1022.23 853.252 1020.63 859.453 1020.41 863.751L1021.41 863.801C1021.62 859.658 1023.17 853.702 1027.14 849.296C1031.07 844.923 1037.43 842.012 1047.41 844.007L1047.61 843.026ZM1266.14 627.017C1270.7 717.51 1235.2 772.318 1189.03 804.105C1142.83 835.915 1085.88 844.702 1047.53 843.017L1047.49 844.016C1085.99 845.708 1143.17 836.894 1189.6 804.928C1236.06 772.939 1271.71 717.796 1267.14 626.966L1266.14 627.017ZM1066.57 490.735C1147.02 480.62 1196.99 501.277 1226.8 531.112C1256.63 560.965 1266.35 600.078 1266.14 626.988L1267.14 626.995C1267.36 599.879 1257.57 560.486 1227.51 530.405C1197.43 500.304 1147.12 479.598 1066.45 489.743L1066.57 490.735ZM916.274 652.365C927.389 540.242 1021.11 497.889 1066.59 490.733L1066.43 489.745C1020.71 496.939 926.457 539.508 915.279 652.267L916.274 652.365ZM895.995 699.688C898.435 699.713 900.742 698.576 902.855 696.454C904.964 694.335 906.905 691.21 908.639 687.179C912.108 679.115 914.792 667.317 916.274 652.365L915.279 652.267C913.801 667.168 911.133 678.852 907.721 686.784C906.015 690.75 904.134 693.752 902.146 695.748C900.163 697.741 898.1 698.709 896.005 698.688L895.995 699.688Z" fill="url(#paint1_linear_737_32)"/>
</g>
<defs>
<filter id="filter0_d_737_32" x="0.399994" y="0.399994" width="1791.2" height="1791.2" filterUnits="userSpaceOnUse" color-interpolation-filters="sRGB">
<feFlood flood-opacity="0" result="BackgroundImageFix"/>
<feColorMatrix in="SourceAlpha" type="matrix" values="0 0 0 0 0 0 0 0 0 0 0 0 0 0 0 0 0 0 127 0" result="hardAlpha"/>
<feOffset/>
<feGaussianBlur stdDeviation="72.8"/>
<feComposite in2="hardAlpha" operator="out"/>
<feColorMatrix type="matrix" values="0 0 0 0 0.239216 0 0 0 0 0.517647 0 0 0 0 0.87451 0 0 0 0.25 0"/>
<feBlend mode="normal" in2="BackgroundImageFix" result="effect1_dropShadow_737_32"/>
<feBlend mode="normal" in="SourceGraphic" in2="effect1_dropShadow_737_32" result="shape"/>
</filter>
<filter id="filter1_dd_737_32" x="287.5" y="405.5" width="1217" height="981" filterUnits="userSpaceOnUse" color-interpolation-filters="sRGB">
<feFlood flood-opacity="0" result="BackgroundImageFix"/>
<feColorMatrix in="SourceAlpha" type="matrix" values="0 0 0 0 0 0 0 0 0 0 0 0 0 0 0 0 0 0 127 0" result="hardAlpha"/>
<feOffset dx="3" dy="-3"/>
<feGaussianBlur stdDeviation="2.5"/>
<feComposite in2="hardAlpha" operator="out"/>
<feColorMatrix type="matrix" values="0 0 0 0 0.239216 0 0 0 0 0.517647 0 0 0 0 0.87451 0 0 0 0.5 0"/>
<feBlend mode="normal" in2="BackgroundImageFix" result="effect1_dropShadow_737_32"/>
<feColorMatrix in="SourceAlpha" type="matrix" values="0 0 0 0 0 0 0 0 0 0 0 0 0 0 0 0 0 0 127 0" result="hardAlpha"/>
<feOffset dx="-3" dy="3"/>
<feGaussianBlur stdDeviation="2.5"/>
<feComposite in2="hardAlpha" operator="out"/>
<feColorMatrix type="matrix" values="0 0 0 0 0.238662 0 0 0 0 0.516764 0 0 0 0 0.875846 0 0 0 0.5 0"/>
<feBlend mode="normal" in2="effect1_dropShadow_737_32" result="effect2_dropShadow_737_32"/>
<feBlend mode="normal" in="SourceGraphic" in2="effect2_dropShadow_737_32" result="shape"/>
</filter>
<linearGradient id="paint0_linear_737_32" x1="618.6" y1="414" x2="618.6" y2="1378" gradientUnits="userSpaceOnUse">
<stop stop-color="#3F8EF4"/>
<stop offset="0.547924" stop-color="#76B7F3"/>
<stop offset="1" stop-color="#A4D8F3"/>
</linearGradient>
<linearGradient id="paint1_linear_737_32" x1="618.6" y1="414" x2="618.6" y2="1378" gradientUnits="userSpaceOnUse">
<stop stop-color="#2A84F8"/>
<stop offset="1" stop-color="#00A8FF"/>
</linearGradient>
</defs>
</svg>
