<svg width="100%" height="100%" viewBox="0 0 388 583" fill="none" xmlns="http://www.w3.org/2000/svg">
<path d="M31.8515 177.5C31.3515 182.167 31.7515 192.8 37.3515 198C43.0183 204.333 49.0517 222.5 27.8517 244.5C24.1851 247.833 18.3518 256.3 24.3517 263.5C27.1849 265.167 33.7514 268.9 37.3515 270.5C38.1848 271.5 39.3514 275.5 37.3515 283.5L44.3517 293.5L40.8517 301.5C43.185 303 47.7517 309.7 47.3517 324.5C48.3517 331.667 54.2517 345 69.8517 341C81.083 337.057 97.5396 329.774 108.352 327.992M31.8515 177.5C30.6849 178.167 27.8517 180.9 25.8517 186.5C25.185 179.167 23.9517 163.7 24.3517 160.5L14.8517 179C12.8517 171 9.45169 153.1 11.8517 145.5C14.5184 138 23.4519 121.5 37.8519 115.5C32.5186 116 17.9519 126.2 2.3519 163C0.518323 145 4.95124 106.9 37.3515 98.5L8.85205 112C15.1854 103.667 34.8521 84.4 62.8521 74C48.8518 75.6666 19.6514 78.5 14.8517 76.5C25.6851 74.6666 47.8521 70.2 49.8521 67C51.1854 65 57.8521 61.3 73.8521 62.5H30.3521C43.3521 57.8333 73.6521 49.3 90.8521 52.5C78.1854 50.5 52.5521 45.8 51.3521 43C61.5187 41.1666 85.8521 38.3 101.852 41.5C93.8521 38 77.4521 30.3 75.8521 27.5C96.3521 33.1667 137.852 42.8 139.852 36L120.352 21C134.185 23.1667 162.252 28.8 163.852 34C158.519 30 147.052 19.6 143.852 10C158.019 20.8333 227.852 36 227.852 36C220.519 28.6667 205.752 13.4 205.352 11C216.185 20 239.052 36.6 243.852 31C237.019 25.6667 222.352 13.2 218.352 6C238.019 17 279.352 44.3 287.352 65.5C285.019 59 282.552 44.5 291.352 38.5C290.852 46.6667 291.052 63.5 295.852 65.5C297.685 60.1667 302.052 49.8 304.852 51C302.519 52.6667 298.452 64.2 300.852 97C305.019 89.3333 315.052 74.9 321.852 78.5C315.685 83.6667 304.152 96.4 307.352 106M31.8515 177.5L34.3521 184.5C35.3519 177.167 38.0517 161.2 40.8517 156C41.6851 158.5 44.6521 164.6 49.8521 169C49.8521 167.833 49.8521 165 49.8521 163C49.8521 160.5 62.3521 179.5 80.3521 182C74.5187 174.167 62.8521 157.6 62.8521 154C74.0187 163.5 97.1521 181.8 100.352 179L109.352 219.5H115.852C119.019 200.667 130.252 170.1 151.852 172.5C163.519 172 177.152 175.5 174.352 207.5C173.894 214.25 171.031 225.323 161.852 234.5M139.852 387L134.852 360.5C123.652 352.1 121.352 352 119.852 349.5C117.852 346.167 119.033 330 117.852 329C116.012 327.443 112.622 327.288 108.352 327.992M355.352 470.5C398.152 460.1 385.852 421.5 374.352 403.5C374.352 397.1 359.018 370.5 351.352 358L345.352 341C327.379 318.446 274.971 327.353 242.352 337.086M355.352 470.5C345.852 471.5 320.652 470.1 295.852 456.5C278.852 445.5 241.952 424.6 230.352 429C208.352 425.667 155.452 427.1 119.852 459.5M355.352 470.5C352.685 483.667 348.152 513.9 351.352 529.5C341.518 536 317.952 550 302.352 554M119.852 459.5C77.8521 492.5 77.3517 541.667 74.3517 562.5C146.751 592.1 228.852 577.833 260.852 567M119.852 459.5C119.852 459.5 104.352 477.632 96.8513 473C93.0921 470.678 88.8513 465 88.8513 465V456.5H80.3513C80.3513 456.5 75.8675 459.604 74.3517 456.5V448.5L80.3513 441.5C117.018 409.333 186.752 350.6 230.352 341C233.902 339.731 237.946 338.401 242.352 337.086M307.852 106.5C313.852 111 325.952 123.5 326.352 137.5C324.852 133.333 320.952 125 317.352 125C319.019 132.333 322.052 150.4 320.852 164C319.352 160.167 316.252 152.8 315.852 154C315.185 168 312.552 198.3 307.352 207.5C288.352 220 245.852 252.2 227.852 281M227.852 281C227.019 295.558 228.752 327.155 242.352 337.086M227.852 281C227.852 281 208.041 272.122 197.352 263.5C184.981 253.521 161.852 234.5 161.852 234.5M134.852 234.5C134.852 234.5 143.685 242.333 151.852 240C158.751 237.868 157.658 238.692 161.852 234.5M107.852 554C121.685 529.667 140.244 480.337 181.352 478.5M181.352 478.5C200.352 477.651 222.852 487 260.852 567M181.352 478.5C194.152 456.9 213.019 442.5 220.852 438C250.052 433.2 283.352 479.667 296.352 503.5C300.752 511.1 302.185 540.333 302.352 554M260.852 567C274.685 564.5 302.352 558.4 302.352 554M108.352 327.992C120.185 320.495 145.452 302 151.852 288" stroke="url(#paint0_linear_737_9)" stroke-width="4"/>
<defs>
<linearGradient id="paint0_linear_737_9" x1="92" y1="43.5" x2="333" y2="580" gradientUnits="userSpaceOnUse">
<stop stop-color="#2A84F8"/>
<stop offset="1" stop-color="#A4D8F3"/>
</linearGradient>
</defs>
</svg>
